static_grf.mot
version=1
nRows=20
nColumns 19
inDegrees=yes
endheader
time	1_ground_force_vx	1_ground_force_vy	1_ground_force_vz	1_ground_force_px	1_ground_force_py	1_ground_force_pz	1_ground_torque_x	1_ground_torque_y	1_ground_torque_z	2_ground_force_vx	2_ground_force_vy	2_ground_force_vz	2_ground_force_px	2_ground_force_py	2_ground_force_pz	2_ground_torque_x	2_ground_torque_y	2_ground_torque_z
            0.905000	           -6.290770	          456.081449	          -42.510281	           -0.232671	            0.006012	           -0.356146	           -0.021339	            1.547083	           -0.144200	            2.445674	          469.985545	           46.538985	           -0.260492	            0.005704	           -0.742615	           -0.006326	           -1.215666	           -0.120378
            0.905500	           -6.290818	          455.721114	          -42.557686	           -0.232582	            0.006012	           -0.356149	           -0.021684	            1.570829	           -0.146692	            2.493147	          469.801908	           46.444452	           -0.260592	            0.005703	           -0.742698	           -0.006231	           -1.174166	           -0.116078
            0.906000	           -6.106910	          455.900401	          -42.328085	           -0.232630	            0.006013	           -0.356212	           -0.022306	            1.665237	           -0.154609	            2.025128	          469.617582	           46.021641	           -0.260536	            0.005704	           -0.742699	           -0.004817	           -1.117142	           -0.109478
            0.906500	           -6.473621	          455.720095	          -42.327948	           -0.232645	            0.006013	           -0.356335	           -0.022207	            1.563262	           -0.145198	            2.400071	          469.617764	           46.349978	           -0.260592	            0.005703	           -0.742583	           -0.006284	           -1.229618	           -0.121360
            0.907000	           -6.336355	          457.162247	          -42.322106	           -0.232557	            0.006011	           -0.355931	           -0.021329	            1.538840	           -0.142459	            2.307700	          469.249144	           46.348704	           -0.260462	            0.005704	           -0.742831	           -0.005832	           -1.185957	           -0.117139
            0.907500	           -6.106553	          456.440443	          -42.142343	           -0.232479	            0.006012	           -0.356156	           -0.021577	            1.612789	           -0.148906	            2.304878	          469.987046	           45.975907	           -0.260463	            0.005704	           -0.742773	           -0.005765	           -1.175627	           -0.115004
            0.908000	           -6.289826	          455.899580	          -42.144207	           -0.232458	            0.006013	           -0.356236	           -0.021975	            1.592819	           -0.147243	            2.493086	          469.802410	           46.303667	           -0.260502	            0.005704	           -0.742699	           -0.006489	           -1.222891	           -0.120528
            0.908500	           -6.198742	          456.080877	          -42.372944	           -0.232522	            0.006013	           -0.356259	           -0.022186	            1.632361	           -0.151657	            2.304357	          470.170015	           46.305061	           -0.260441	            0.005705	           -0.743049	           -0.005982	           -1.220612	           -0.120213
            0.909000	           -6.152378	          455.719568	          -42.191180	           -0.232560	            0.006013	           -0.356239	           -0.022001	            1.629696	           -0.150880	            2.589444	          469.066185	           46.300999	           -0.260508	            0.005703	           -0.742597	           -0.006697	           -1.213203	           -0.119754
            0.909500	           -5.969087	          455.539503	          -42.238261	           -0.232750	            0.006012	           -0.356199	           -0.021226	            1.619893	           -0.150199	            2.213233	          469.433783	           46.114760	           -0.260649	            0.005703	           -0.742586	           -0.005697	           -1.208423	           -0.118709
            0.910000	           -6.061213	          456.080903	          -42.373286	           -0.232675	            0.006012	           -0.356134	           -0.021610	            1.626081	           -0.151075	            2.449600	          468.881142	           46.394258	           -0.260720	            0.005703	           -0.742801	           -0.006330	           -1.211682	           -0.119892
            0.910500	           -6.198515	          456.080483	          -42.281233	           -0.232689	            0.006012	           -0.356126	           -0.022047	            1.622161	           -0.150383	            2.350563	          470.354157	           46.352626	           -0.260593	            0.005704	           -0.742965	           -0.006022	           -1.204966	           -0.118747
            0.911000	           -6.244211	          455.899982	          -42.236032	           -0.232490	            0.006012	           -0.356080	           -0.022038	            1.609027	           -0.149065	            2.257589	          470.169176	           46.492794	           -0.260523	            0.005704	           -0.742889	           -0.005796	           -1.207051	           -0.119360
            0.911500	           -6.152330	          456.079902	          -42.143775	           -0.232810	            0.006012	           -0.356113	           -0.021894	            1.623018	           -0.149974	            2.261433	          469.065503	           46.160355	           -0.260468	            0.005704	           -0.742755	           -0.005857	           -1.214784	           -0.119546
            0.912000	           -6.244669	          457.162265	          -42.322333	           -0.232451	            0.006011	           -0.355933	           -0.021967	            1.608139	           -0.148875	            2.072122	          469.616579	           46.350118	           -0.260641	            0.005703	           -0.742581	           -0.005220	           -1.183081	           -0.116767
            0.912500	           -6.107056	          456.080894	          -42.373172	           -0.232358	            0.006013	           -0.356257	           -0.021266	            1.588141	           -0.147550	            2.446921	          469.617933	           46.349958	           -0.260514	            0.005704	           -0.742663	           -0.006360	           -1.220601	           -0.120470
            0.913000	           -6.243707	          456.259530	          -42.005210	           -0.232619	            0.006012	           -0.356101	           -0.021844	            1.596259	           -0.146958	            2.023860	          469.985361	           46.163739	           -0.260433	            0.005704	           -0.742771	           -0.004807	           -1.116289	           -0.109646
            0.913500	           -6.382620	          456.982729	          -42.506188	           -0.232518	            0.006012	           -0.355989	           -0.021526	            1.541230	           -0.143357	            2.120260	          469.248802	           46.254928	           -0.260705	            0.005703	           -0.742709	           -0.005321	           -1.177592	           -0.116078
            0.914000	           -6.153453	          456.622438	          -42.554163	           -0.232474	            0.006011	           -0.355868	           -0.022062	            1.637117	           -0.152568	            2.490509	          470.538364	           46.494008	           -0.260534	            0.005704	           -0.742802	           -0.006556	           -1.238646	           -0.122391
            0.914500	           -6.153372	          456.802538	          -42.507530	           -0.232532	            0.006011	           -0.355904	           -0.021088	            1.565509	           -0.145678	            2.258795	          469.801899	           46.209911	           -0.260396	            0.005704	           -0.742777	           -0.005559	           -1.156103	           -0.113715
